<svg width="31" height="31" fill="none" xmlns="http://www.w3.org/2000/svg"><path fill-rule="evenodd" clip-rule="evenodd" d="M15.7746 30.2089c8.319 0 15.0629-6.7157 15.0629-15 0-8.28425-6.7439-14.999977-15.0629-14.999977C7.45558.208923.71167 6.92465.71167 15.2089c0 1.528.229436 3.0027.65587 4.3917.10882.0195.28476.0641.54112.1389l-.40032-6.2725c0-.115.19476-.1703.37319-.221.09793-.0278.19094-.0542.24414-.0883.14527-.0914 3.13691.9963 3.29672 1.0685L9.248 15.9495c.9879-.621 2.1695-.8713 3.3317-.7028l3.4769-4.2215c.0436-3.36944 2.8038-6.08428 6.1985-6.08909 3.1718.03369 5.8013 2.44046 6.1016 5.57409.3196 3.3887-2.1792 6.3924-5.5883 6.7149l-5.7917 4.1156c-.3535 1.805-1.6513 3.2828-3.4043 3.8701-2.6876.9049-5.60768-.5295-6.51323-3.2059l-2.0145-.6642c-.14936-.0473-2.89081-1.183-3.63338-1.6001 1.92922 6.0693 7.63039 10.4683 14.36331 10.4683Zm9.58-19.1115c0 1.7014-1.3876 3.0806-3.0993 3.0806s-3.0993-1.3792-3.0993-3.0806c0-1.70145 1.3876-3.08071 3.0993-3.08071s3.0993 1.37926 3.0993 3.08071Zm-1.031 0c0 1.1351-.9258 2.0554-2.0679 2.0554-1.142 0-2.0678-.9203-2.0678-2.0554 0-1.13518.9258-2.05541 2.0678-2.05541 1.1421 0 2.0679.92023 2.0679 2.05541ZM10.5804 23.1121c.4165.2021.8765.308 1.3414.308.3535 0 .6973-.0577 1.0363-.1685.7796-.2695 1.414-.8327 1.7723-1.5692.7457-1.5355.0968-3.3743-1.4431-4.1155-.2614-.1252-.5665-.0193-.6924.2358-.1259.26-.0194.5632.2373.6884.0339.0144.0678.0288.1016.0481 1.017.5199 1.4092 1.7569.8862 2.7678-.523 1.0108-1.7723 1.4007-2.7844.8809-.2615-.1252-.5666-.0193-.6925.2358-.1259.26-.0193.5632.2373.6884Z" fill="#FFB548"/></svg>