<svg width="31" height="31" fill="none" xmlns="http://www.w3.org/2000/svg"><path d="M10.5514 2.85846c1.5842.62121 3.1156 1.44169 4.559 2.44384.1643.11135.3521.16995.5398.16995.1878 0 .3755-.0586.5398-.16995 1.4434-1.00215 2.9748-1.82849 4.5591-2.4497.3579-.14065.5985-.49228.5926-.87908 0-.38679-.2406-.73256-.6044-.86736-3.1684-1.2014031-7.0058-1.2014031-10.1683 0-.358.1348-.6044.48643-.6044.86736 0 .38093.223.74429.5868.88494Z" fill="#FFB548"/><path d="M24.1587 2.86378c-.2993-.20512-.6807-.2227-1.0034-.04102-1.7544 1.008-3.4501 2.16253-5.0519 3.43426-.2112.16995-.3403.42196-.3521.69154-.0117.26958.0939.53331.2875.72084 3.3211 3.1588 7.9212 12.8463 8.9774 17.3003-2.2884-3.868-7.3931-12.9694-10.7317-16.08131-.358-.33405-.9212-.33405-1.2792 0C11.6608 12.0003 6.5737 21.1076 4.28536 24.9814c1.05616-4.454 5.64456-14.1532 8.96554-17.312.1995-.18753.3052-.45126.2934-.72084-.0117-.26958-.1408-.52159-.352-.69154-1.6019-1.27173-3.30345-2.42626-5.05197-3.43426-.31098-.18168-.70411-.1641-1.00335.04102C3.05905 5.67097.624023 10.2832.624023 15.206c0 3.5984 1.296727 7.0678 3.661337 9.7754 2.82815 3.317 6.96474 5.2276 11.35954 5.2276 4.3948 0 8.5373-1.9047 11.3713-5.2335 2.3528-2.6958 3.6496-6.1652 3.6496-9.7695 0-4.9228-2.4351-9.53503-6.5071-12.34222Z" fill="#FFB548"/></svg>